<svg width="32" height="32" viewBox="0 0 32 32" fill="none" xmlns="http://www.w3.org/2000/svg">
<path d="M26.2471 12.6993V12.6106C26.2453 10.9636 25.5902 9.38451 24.4256 8.21988C23.261 7.05526 21.6819 6.4002 20.0349 6.39844H19.1475C18.6767 6.39844 18.2253 6.58544 17.8924 6.91829C17.5596 7.25115 17.3726 7.70261 17.3726 8.17334V21.4851H15.5977V9.94824C15.5977 9.71287 15.5042 9.48715 15.3377 9.32072C15.1713 9.15429 14.9456 9.06079 14.7102 9.06079H3.17334C2.70261 9.06079 2.25115 9.24779 1.91829 9.58065C1.58544 9.91351 1.39844 10.365 1.39844 10.8357L1.39844 22.3726C1.39925 23.0933 1.61941 23.7966 2.02965 24.3892C2.43988 24.9817 3.02077 25.4354 3.69506 25.6898C4.36936 25.9442 5.10513 25.9874 5.80455 25.8135C6.50396 25.6397 7.1339 25.2571 7.61059 24.7165C8.03669 25.2006 8.58661 25.5594 9.20128 25.7545C9.81594 25.9496 10.4721 25.9736 11.0994 25.8238C11.7267 25.6741 12.3013 25.3563 12.7615 24.9046C13.2218 24.4529 13.5503 23.8843 13.7118 23.26H22.8082C23.0228 24.0982 23.5361 24.8291 24.2517 25.3155C24.9673 25.8018 25.8359 26.0101 26.6942 25.9011C27.5526 25.7921 28.3415 25.3733 28.9129 24.7236C29.4842 24.0738 29.7986 23.2378 29.7969 22.3726V17.0478C29.7956 16.0253 29.4419 15.0345 28.7952 14.2424C28.1486 13.4502 27.2486 12.9053 26.2471 12.6993ZM19.1475 8.17334H20.0349C21.2117 8.17334 22.3404 8.64083 23.1725 9.47298C24.0047 10.3051 24.4722 11.4338 24.4722 12.6106V13.498C24.4722 13.7334 24.5657 13.9591 24.7321 14.1256C24.8985 14.292 25.1242 14.3855 25.3596 14.3855C26.0657 14.3855 26.7429 14.666 27.2422 15.1653C27.7415 15.6646 28.022 16.3417 28.022 17.0478V19.3009C27.4832 18.987 26.8706 18.822 26.2471 18.8228C25.4601 18.8235 24.6956 19.0853 24.0733 19.567C23.451 20.0488 23.006 20.7234 22.8082 21.4851H19.1475V8.17334ZM13.8228 10.8357V21.4851H13.7118C13.5503 20.8608 13.2218 20.2922 12.7615 19.8405C12.3013 19.3888 11.7267 19.071 11.0994 18.9213C10.4721 18.7715 9.81594 18.7955 9.20128 18.9906C8.58661 19.1857 8.03669 19.5445 7.61059 20.0286C7.0699 19.4119 6.33177 19.0021 5.52241 18.8694C4.71304 18.7366 3.8827 18.8891 3.17334 19.3009V10.8357H13.8228ZM4.94824 24.1475C4.5972 24.1475 4.25404 24.0434 3.96216 23.8483C3.67028 23.6533 3.44278 23.3761 3.30845 23.0518C3.17411 22.7275 3.13896 22.3706 3.20744 22.0263C3.27593 21.682 3.44497 21.3657 3.6932 21.1175C3.94142 20.8693 4.25768 20.7002 4.60198 20.6318C4.94627 20.5633 5.30315 20.5984 5.62747 20.7328C5.95179 20.8671 6.22899 21.0946 6.42402 21.3865C6.61905 21.6784 6.72314 22.0215 6.72314 22.3726C6.72314 22.8433 6.53615 23.2947 6.20329 23.6276C5.87043 23.9605 5.41897 24.1475 4.94824 24.1475ZM10.2729 24.1475C9.9219 24.1475 9.57875 24.0434 9.28686 23.8483C8.99498 23.6533 8.76749 23.3761 8.63315 23.0518C8.49881 22.7275 8.46366 22.3706 8.53215 22.0263C8.60063 21.682 8.76968 21.3657 9.0179 21.1175C9.26613 20.8693 9.58238 20.7002 9.92668 20.6318C10.271 20.5633 10.6279 20.5984 10.9522 20.7328C11.2765 20.8671 11.5537 21.0946 11.7487 21.3865C11.9438 21.6784 12.0478 22.0215 12.0478 22.3726C12.0478 22.8433 11.8609 23.2947 11.528 23.6276C11.1951 23.9605 10.7437 24.1475 10.2729 24.1475ZM26.2471 24.1475C25.896 24.1475 25.5529 24.0434 25.261 23.8483C24.9691 23.6533 24.7416 23.3761 24.6073 23.0518C24.4729 22.7275 24.4378 22.3706 24.5063 22.0263C24.5748 21.682 24.7438 21.3657 24.992 21.1175C25.2402 20.8693 25.5565 20.7002 25.9008 20.6318C26.2451 20.5633 26.602 20.5984 26.9263 20.7328C27.2506 20.8671 27.5278 21.0946 27.7228 21.3865C27.9179 21.6784 28.022 22.0215 28.022 22.3726C28.022 22.8433 27.835 23.2947 27.5021 23.6276C27.1692 23.9605 26.7178 24.1475 26.2471 24.1475Z" fill="black"/>
</svg>
