<?xml version="1.0" encoding="UTF-8"?>
<svg id="Layer_1" data-name="Layer 1" xmlns="http://www.w3.org/2000/svg" viewBox="0 0 1280 307">
  <defs>
    <style>
      .cls-1, .cls-2 {
        fill: #595959;
      }

      .cls-3, .cls-2 {
        font-family: Montserrat-BoldItalic, Montserrat;
        font-size: 29.03px;
        font-style: italic;
        font-weight: 700;
      }

      .cls-3, .cls-4 {
        fill: #155dfc;
      }
    </style>
  </defs>
  <g>
    <g>
      <g>
        <path class="cls-1" d="M906.28,101.77c7.64,0,14.54,5.77,17.71,10.52,4.39,6.57,5.48,15.64,1.63,22.12l-31.37,52.74c-5.01,8.43-15.89,15.54-26.03,15.55l-186.17.24c-1.4,0-3.34-1.24-3.86-2.08-.62-1-.33-3.56.45-4.74l24.85-37.2c1.82-3.74,4-6.99,9.48-6.84l126.36-.02c4.2,0,7.37-3.56,7.87-6.95.39-2.64-1.21-5.41-4.04-5.42l-71.12-.29c-9.23-.04-18.02-5.14-24.29-11.12-10.34-9.85-10.77-24.38-7.8-26.38"/>
        <path class="cls-1" d="M951.86,83.77c-1.43,2.43-3.8,4.38-6.62,4.38l-189.85-.03c-2.64,0-5.26-3.49-3.95-5.48l15.28-27.1c7.47-11.33,25.68-22.45,39.72-22.46l167.83-.09c1.41,0,3.4,1.18,3.94,2.05.66,1.05.31,3.53-.46,4.84l-25.89,43.9Z"/>
      </g>
      <path class="cls-1" d="M757.4,36.35l-35.05,59.71c-3.55,6.06-7.46-6.87-13.55-12.62l-74.3,60.72c-4.86,3.97-8.56,8.52-11.75,13.9l-22.61,38.18c-2.17,3.67-4.94,6.69-9.65,6.69h-49.13c-1.06,0-2.81-.71-2.89-1.34-.07-.62.28-1.78.76-2.59l32.62-54.26c2.73-4.54,2.22-7.22-1.22-11.2l-41.68-48.06c-4.91-5.66-10.28-9.75-18.04-10.12h-17.74c-2.73,0-6.15,1.82-7.43,4.11l-30.16,54.09-35.29,63.03c-1.98,3.53-4.96,6.32-9.37,6.32h-52.88c-1.24-1.21-.84-3.8.52-5.16l66.45-118.79.09-2.24c.03-.57-1.47-1.39-2.19-1.39h-119.37c-.57,0-2.15-.76-2.11-1.3l.16-2.42,27.58-32.55c4.74-4.31,10.19-6.09,16.83-6.08l173.93.15.08.02h13.7c8.25.01,15.44,3.48,21.46,8.4,2.45,2,4.7,4.24,6.75,6.59l46.52,53.3c1.71,1.96,4.26,3.43,6.72,1.43l66.63-54.27-8.24-10.88c-.43-.57-1-2.1-.9-2.79.13-.83,1.85-1.93,2.89-1.93h80.66c1.01.01,1.74,2.42,1.2,3.35Z"/>
    </g>
    <text class="cls-2" transform="translate(538.47 270) scale(1.21 1)"><tspan x="0" y="0">LOGISTICS</tspan></text>
  </g>
  <g>
    <g>
      <g>
        <path class="cls-4" d="M906.28,101.77c7.64,0,14.54,5.77,17.71,10.52,4.39,6.57,5.48,15.64,1.63,22.12l-31.37,52.74c-5.01,8.43-15.89,15.54-26.03,15.55l-186.17.24c-1.4,0-3.34-1.24-3.86-2.08-.62-1-.33-3.56.45-4.74l24.85-37.2c1.82-3.74,4-6.99,9.48-6.84l126.36-.02c4.2,0,7.37-3.56,7.87-6.95.39-2.64-1.21-5.41-4.04-5.42l-71.12-.29c-9.23-.04-18.02-5.14-24.29-11.12-10.34-9.85-10.77-24.38-7.8-26.38"/>
        <path class="cls-4" d="M951.86,83.77c-1.43,2.43-3.8,4.38-6.62,4.38l-189.85-.03c-2.64,0-5.26-3.49-3.95-5.48l15.28-27.1c7.47-11.33,25.68-22.45,39.72-22.46l167.83-.09c1.41,0,3.4,1.18,3.94,2.05.66,1.05.31,3.53-.46,4.84l-25.89,43.9Z"/>
      </g>
      <path class="cls-4" d="M757.4,36.35l-35.05,59.71c-3.55,6.06-7.46-6.87-13.55-12.62l-74.3,60.72c-4.86,3.97-8.56,8.52-11.75,13.9l-22.61,38.18c-2.17,3.67-4.94,6.69-9.65,6.69h-49.13c-1.06,0-2.81-.71-2.89-1.34-.07-.62.28-1.78.76-2.59l32.62-54.26c2.73-4.54,2.22-7.22-1.22-11.2l-41.68-48.06c-4.91-5.66-10.28-9.75-18.04-10.12h-17.74c-2.73,0-6.15,1.82-7.43,4.11l-30.16,54.09-35.29,63.03c-1.98,3.53-4.96,6.32-9.37,6.32h-52.88c-1.24-1.21-.84-3.8.52-5.16l66.45-118.79.09-2.24c.03-.57-1.47-1.39-2.19-1.39h-119.37c-.57,0-2.15-.76-2.11-1.3l.16-2.42,27.58-32.55c4.74-4.31,10.19-6.09,16.83-6.08l173.93.15.08.02h13.7c8.25.01,15.44,3.48,21.46,8.4,2.45,2,4.7,4.24,6.75,6.59l46.52,53.3c1.71,1.96,4.26,3.43,6.72,1.43l66.63-54.27-8.24-10.88c-.43-.57-1-2.1-.9-2.79.13-.83,1.85-1.93,2.89-1.93h80.66c1.01.01,1.74,2.42,1.2,3.35Z"/>
    </g>
    <text class="cls-3" transform="translate(538.47 270) scale(1.21 1)"><tspan x="0" y="0">LOGISTICS</tspan></text>
  </g>
</svg>