<svg xmlns="http://www.w3.org/2000/svg" viewBox="-49.3 -48.5 107.3 121.0" width="429" height="484"><g stroke="#1B2A4A" stroke-width="0.35" stroke-linejoin="round" stroke-opacity="0.14"><polygon points="-18.19,-11.00 -16.97,-10.30 -17.36,-10.07 -18.58,-10.78" fill="#35456A"/><polygon points="-16.97,12.70 -17.36,12.93 -17.36,-10.07 -16.97,-10.30" fill="#18223A"/><polygon points="-18.58,12.22 -18.58,-10.78 -17.36,-10.07 -17.36,12.93" fill="#223050"/><polygon points="-13.86,-8.50 -12.64,-7.80 -13.03,-7.57 -14.25,-8.27" fill="#35456A"/><polygon points="-12.64,15.20 -13.03,15.43 -13.03,-7.57 -12.64,-7.80" fill="#18223A"/><polygon points="-14.25,14.73 -14.25,-8.27 -13.03,-7.57 -13.03,15.43" fill="#223050"/><polygon points="-9.53,-6.00 -8.31,-5.30 -8.70,-5.07 -9.92,-5.77" fill="#35456A"/><polygon points="-8.31,17.70 -8.70,17.93 -8.70,-5.07 -8.31,-5.30" fill="#18223A"/><polygon points="-9.92,17.23 -9.92,-5.77 -8.70,-5.07 -8.70,17.93" fill="#223050"/><polygon points="0.00,-26.00 51.96,4.00 31.18,16.00 -20.78,-14.00" fill="#44557A"/><polygon points="51.96,30.00 31.18,42.00 31.18,16.00 51.96,4.00" fill="#1F2A42"/><polygon points="-20.78,12.00 -20.78,-14.00 31.18,16.00 31.18,42.00" fill="#2C3A58"/><polygon points="-5.20,-3.50 -3.98,-2.80 -4.37,-2.58 -5.59,-3.27" fill="#35456A"/><polygon points="-3.98,20.20 -4.37,20.42 -4.37,-2.58 -3.98,-2.80" fill="#18223A"/><polygon points="-5.59,19.73 -5.59,-3.27 -4.37,-2.58 -4.37,20.42" fill="#223050"/><polygon points="-0.87,-1.00 0.35,-0.30 -0.04,-0.08 -1.26,-0.77" fill="#35456A"/><polygon points="0.35,22.70 -0.04,22.92 -0.04,-0.08 0.35,-0.30" fill="#18223A"/><polygon points="-1.26,22.23 -1.26,-0.77 -0.04,-0.08 -0.04,22.92" fill="#223050"/><polygon points="3.46,1.50 4.68,2.20 4.29,2.42 3.07,1.73" fill="#35456A"/><polygon points="4.68,25.20 4.29,25.42 4.29,2.42 4.68,2.20" fill="#18223A"/><polygon points="3.07,24.73 3.07,1.73 4.29,2.42 4.29,25.42" fill="#223050"/><polygon points="-40.70,2.00 -39.49,2.70 -39.88,2.93 -41.09,2.23" fill="#2F78F0"/><polygon points="-39.49,25.70 -39.88,25.93 -39.88,2.93 -39.49,2.70" fill="#0247BD"/><polygon points="-41.09,25.23 -41.09,2.23 -39.88,2.93 -39.88,25.93" fill="#0359E0"/><polygon points="7.79,4.00 9.01,4.70 8.62,4.92 7.40,4.23" fill="#35456A"/><polygon points="9.01,27.70 8.62,27.92 8.62,4.92 9.01,4.70" fill="#18223A"/><polygon points="7.40,27.23 7.40,4.23 8.62,4.92 8.62,27.92" fill="#223050"/><polygon points="-36.37,4.50 -35.16,5.20 -35.55,5.43 -36.76,4.73" fill="#2F78F0"/><polygon points="-35.16,28.20 -35.55,28.43 -35.55,5.43 -35.16,5.20" fill="#0247BD"/><polygon points="-36.76,27.73 -36.76,4.73 -35.55,5.43 -35.55,28.43" fill="#0359E0"/><polygon points="12.12,6.50 13.34,7.20 12.95,7.42 11.73,6.73" fill="#35456A"/><polygon points="13.34,30.20 12.95,30.42 12.95,7.42 13.34,7.20" fill="#18223A"/><polygon points="11.73,29.73 11.73,6.73 12.95,7.42 12.95,30.42" fill="#223050"/><polygon points="48.50,8.00 48.89,8.23 48.02,8.73 47.63,8.50" fill="#35456A"/><polygon points="48.89,30.23 48.02,30.73 48.02,8.73 48.89,8.23" fill="#18223A"/><polygon points="47.63,30.50 47.63,8.50 48.02,8.73 48.02,30.73" fill="#223050"/><polygon points="-32.04,7.00 -30.83,7.70 -31.22,7.93 -32.43,7.23" fill="#2F78F0"/><polygon points="-30.83,30.70 -31.22,30.93 -31.22,7.93 -30.83,7.70" fill="#0247BD"/><polygon points="-32.43,30.23 -32.43,7.23 -31.22,7.93 -31.22,30.93" fill="#0359E0"/><polygon points="16.45,9.00 17.67,9.70 17.28,9.92 16.06,9.23" fill="#35456A"/><polygon points="17.67,32.70 17.28,32.92 17.28,9.92 17.67,9.70" fill="#18223A"/><polygon points="16.06,32.23 16.06,9.23 17.28,9.92 17.28,32.92" fill="#223050"/><polygon points="-22.52,-13.00 29.44,17.00 8.66,29.00 -43.30,-1.00" fill="#3D86FF"/><polygon points="29.44,43.00 8.66,55.00 8.66,29.00 29.44,17.00" fill="#0253D6"/><polygon points="-43.30,25.00 -43.30,-1.00 8.66,29.00 8.66,55.00" fill="#0364FF"/><polygon points="-27.71,9.50 -26.50,10.20 -26.89,10.42 -28.10,9.73" fill="#2F78F0"/><polygon points="-26.50,33.20 -26.89,33.42 -26.89,10.42 -26.50,10.20" fill="#0247BD"/><polygon points="-28.10,32.73 -28.10,9.73 -26.89,10.42 -26.89,33.42" fill="#0359E0"/><polygon points="42.00,11.25 42.39,11.48 41.53,11.98 41.14,11.75" fill="#35456A"/><polygon points="42.39,34.48 41.53,34.98 41.53,11.98 42.39,11.48" fill="#18223A"/><polygon points="41.14,34.75 41.14,11.75 41.53,11.98 41.53,34.98" fill="#223050"/><polygon points="20.78,11.50 22.00,12.20 21.61,12.42 20.39,11.73" fill="#35456A"/><polygon points="22.00,35.20 21.61,35.42 21.61,12.42 22.00,12.20" fill="#18223A"/><polygon points="20.39,34.73 20.39,11.73 21.61,12.42 21.61,35.42" fill="#223050"/><polygon points="-23.38,12.00 -22.17,12.70 -22.56,12.92 -23.77,12.23" fill="#2F78F0"/><polygon points="-22.17,35.70 -22.56,35.92 -22.56,12.92 -22.17,12.70" fill="#0247BD"/><polygon points="-23.77,35.23 -23.77,12.23 -22.56,12.92 -22.56,35.92" fill="#0359E0"/><polygon points="-24.25,-27.50 -23.04,-26.80 -23.43,-26.57 -24.64,-27.27" fill="#C4D8FB"/><polygon points="-23.04,-3.80 -23.43,-3.57 -23.43,-26.57 -23.04,-26.80" fill="#93B2E6"/><polygon points="-24.64,-4.27 -24.64,-27.27 -23.43,-26.57 -23.43,-3.57" fill="#A9C4F1"/><polygon points="25.11,14.00 26.33,14.70 25.94,14.92 24.73,14.23" fill="#35456A"/><polygon points="26.33,37.70 25.94,37.92 25.94,14.92 26.33,14.70" fill="#18223A"/><polygon points="24.73,37.23 24.73,14.23 25.94,14.92 25.94,37.92" fill="#223050"/><polygon points="35.51,15.50 35.90,15.73 35.03,16.23 34.64,16.00" fill="#35456A"/><polygon points="35.90,37.73 35.03,38.23 35.03,16.23 35.90,15.73" fill="#18223A"/><polygon points="34.64,38.00 34.64,16.00 35.03,16.23 35.03,38.23" fill="#223050"/><polygon points="-19.05,14.50 -17.84,15.20 -18.23,15.42 -19.44,14.73" fill="#2F78F0"/><polygon points="-17.84,38.20 -18.23,38.42 -18.23,15.42 -17.84,15.20" fill="#0247BD"/><polygon points="-19.44,37.73 -19.44,14.73 -18.23,15.42 -18.23,38.42" fill="#0359E0"/><polygon points="-19.92,-25.00 -18.71,-24.30 -19.10,-24.07 -20.31,-24.77" fill="#C4D8FB"/><polygon points="-18.71,-1.30 -19.10,-1.07 -19.10,-24.07 -18.71,-24.30" fill="#93B2E6"/><polygon points="-20.31,-1.77 -20.31,-24.77 -19.10,-24.07 -19.10,-1.07" fill="#A9C4F1"/><polygon points="-14.72,17.00 -13.51,17.70 -13.90,17.92 -15.11,17.23" fill="#2F78F0"/><polygon points="-13.51,40.70 -13.90,40.92 -13.90,17.92 -13.51,17.70" fill="#0247BD"/><polygon points="-15.11,40.23 -15.11,17.23 -13.90,17.92 -13.90,40.92" fill="#0359E0"/><polygon points="-15.59,-22.50 -14.38,-21.80 -14.77,-21.57 -15.98,-22.27" fill="#C4D8FB"/><polygon points="-14.38,1.20 -14.77,1.43 -14.77,-21.57 -14.38,-21.80" fill="#93B2E6"/><polygon points="-15.98,0.73 -15.98,-22.27 -14.77,-21.57 -14.77,1.43" fill="#A9C4F1"/><polygon points="-6.06,-42.50 45.90,-12.50 25.11,-0.50 -26.85,-30.50" fill="#D6E5FF"/><polygon points="45.90,13.50 25.11,25.50 25.11,-0.50 45.90,-12.50" fill="#A5C1F2"/><polygon points="-26.85,-4.50 -26.85,-30.50 25.11,-0.50 25.11,25.50" fill="#BCD3FB"/><polygon points="-10.39,19.50 -9.18,20.20 -9.57,20.42 -10.78,19.73" fill="#2F78F0"/><polygon points="-9.18,43.20 -9.57,43.42 -9.57,20.42 -9.18,20.20" fill="#0247BD"/><polygon points="-10.78,42.73 -10.78,19.73 -9.57,20.42 -9.57,43.42" fill="#0359E0"/><polygon points="-11.26,-20.00 -10.05,-19.30 -10.44,-19.07 -11.65,-19.77" fill="#C4D8FB"/><polygon points="-10.05,3.70 -10.44,3.93 -10.44,-19.07 -10.05,-19.30" fill="#93B2E6"/><polygon points="-11.65,3.23 -11.65,-19.77 -10.44,-19.07 -10.44,3.93" fill="#A9C4F1"/><polygon points="25.98,21.00 26.37,21.23 25.50,21.73 25.11,21.50" fill="#2F78F0"/><polygon points="26.37,43.23 25.50,43.73 25.50,21.73 26.37,21.23" fill="#0247BD"/><polygon points="25.11,43.50 25.11,21.50 25.50,21.73 25.50,43.73" fill="#0359E0"/><polygon points="-6.06,22.00 -4.85,22.70 -5.24,22.92 -6.45,22.23" fill="#2F78F0"/><polygon points="-4.85,45.70 -5.24,45.92 -5.24,22.92 -4.85,22.70" fill="#0247BD"/><polygon points="-6.45,45.23 -6.45,22.23 -5.24,22.92 -5.24,45.92" fill="#0359E0"/><polygon points="-6.93,-17.50 -5.72,-16.80 -6.11,-16.58 -7.32,-17.27" fill="#C4D8FB"/><polygon points="-5.72,6.20 -6.11,6.42 -6.11,-16.58 -5.72,-16.80" fill="#93B2E6"/><polygon points="-7.32,5.73 -7.32,-17.27 -6.11,-16.58 -6.11,6.42" fill="#A9C4F1"/><polygon points="19.49,24.25 19.88,24.48 19.01,24.98 18.62,24.75" fill="#2F78F0"/><polygon points="19.88,47.48 19.01,47.98 19.01,24.98 19.88,24.48" fill="#0247BD"/><polygon points="18.62,47.75 18.62,24.75 19.01,24.98 19.01,47.98" fill="#0359E0"/><polygon points="-1.73,24.50 -0.52,25.20 -0.91,25.42 -2.12,24.73" fill="#2F78F0"/><polygon points="-0.52,48.20 -0.91,48.42 -0.91,25.42 -0.52,25.20" fill="#0247BD"/><polygon points="-2.12,47.73 -2.12,24.73 -0.91,25.42 -0.91,48.42" fill="#0359E0"/><polygon points="-2.60,-15.00 -1.39,-14.30 -1.78,-14.08 -2.99,-14.77" fill="#C4D8FB"/><polygon points="-1.39,8.70 -1.78,8.92 -1.78,-14.08 -1.39,-14.30" fill="#93B2E6"/><polygon points="-2.99,8.23 -2.99,-14.77 -1.78,-14.08 -1.78,8.92" fill="#A9C4F1"/><polygon points="2.60,27.00 3.81,27.70 3.42,27.92 2.21,27.23" fill="#2F78F0"/><polygon points="3.81,50.70 3.42,50.92 3.42,27.92 3.81,27.70" fill="#0247BD"/><polygon points="2.21,50.23 2.21,27.23 3.42,27.92 3.42,50.92" fill="#0359E0"/><polygon points="1.73,-12.50 2.94,-11.80 2.55,-11.58 1.34,-12.27" fill="#C4D8FB"/><polygon points="2.94,11.20 2.55,11.42 2.55,-11.58 2.94,-11.80" fill="#93B2E6"/><polygon points="1.34,10.73 1.34,-12.27 2.55,-11.58 2.55,11.42" fill="#A9C4F1"/><polygon points="12.99,28.50 13.38,28.73 12.51,29.23 12.12,29.00" fill="#2F78F0"/><polygon points="13.38,50.73 12.51,51.23 12.51,29.23 13.38,28.73" fill="#0247BD"/><polygon points="12.12,51.00 12.12,29.00 12.51,29.23 12.51,51.23" fill="#0359E0"/><polygon points="6.06,-10.00 7.27,-9.30 6.88,-9.08 5.67,-9.77" fill="#C4D8FB"/><polygon points="7.27,13.70 6.88,13.92 6.88,-9.08 7.27,-9.30" fill="#93B2E6"/><polygon points="5.67,13.23 5.67,-9.77 6.88,-9.08 6.88,13.92" fill="#A9C4F1"/><polygon points="42.44,-8.50 42.82,-8.27 41.96,-7.77 41.57,-8.00" fill="#C4D8FB"/><polygon points="42.82,13.73 41.96,14.23 41.96,-7.77 42.82,-8.27" fill="#93B2E6"/><polygon points="41.57,14.00 41.57,-8.00 41.96,-7.77 41.96,14.23" fill="#A9C4F1"/><polygon points="29.44,42.00 41.57,49.00 30.31,55.50 18.19,48.50" fill="#EED9B6"/><polygon points="41.57,60.00 30.31,66.50 30.31,55.50 41.57,49.00" fill="#CDAC7E"/><polygon points="18.19,59.50 18.19,48.50 30.31,55.50 30.31,66.50" fill="#DEC39A"/><polygon points="10.39,-7.50 11.60,-6.80 11.22,-6.58 10.00,-7.27" fill="#C4D8FB"/><polygon points="11.60,16.20 11.22,16.42 11.22,-6.58 11.60,-6.80" fill="#93B2E6"/><polygon points="10.00,15.73 10.00,-7.27 11.22,-6.58 11.22,16.42" fill="#A9C4F1"/><polygon points="35.94,-5.25 36.33,-5.02 35.46,-4.52 35.07,-4.75" fill="#C4D8FB"/><polygon points="36.33,17.98 35.46,18.48 35.46,-4.52 36.33,-5.02" fill="#93B2E6"/><polygon points="35.07,18.25 35.07,-4.75 35.46,-4.52 35.46,18.48" fill="#A9C4F1"/><polygon points="14.72,-5.00 15.93,-4.30 15.55,-4.08 14.33,-4.77" fill="#C4D8FB"/><polygon points="15.93,18.70 15.55,18.92 15.55,-4.08 15.93,-4.30" fill="#93B2E6"/><polygon points="14.33,18.23 14.33,-4.77 15.55,-4.08 15.55,18.92" fill="#A9C4F1"/><polygon points="39.32,54.92 39.62,55.09 35.12,57.70 34.81,57.52" fill="#FFFFFF"/><polygon points="39.62,59.05 35.12,61.66 35.12,57.70 39.62,55.09" fill="#F4F7FC"/><polygon points="34.81,61.48 34.81,57.52 35.12,57.70 35.12,61.66" fill="#FFFFFF"/><polygon points="33.73,43.98 37.54,46.18 26.02,52.83 22.21,50.62" fill="#3D86FF"/><polygon points="37.54,46.53 26.02,53.18 26.02,52.83 37.54,46.18" fill="#0253D6"/><polygon points="22.21,50.98 22.21,50.62 26.02,52.83 26.02,53.18" fill="#0364FF"/><polygon points="19.05,-2.50 20.26,-1.80 19.88,-1.58 18.66,-2.27" fill="#C4D8FB"/><polygon points="20.26,21.20 19.88,21.42 19.88,-1.58 20.26,-1.80" fill="#93B2E6"/><polygon points="18.66,20.73 18.66,-2.27 19.88,-1.58 19.88,21.42" fill="#A9C4F1"/><polygon points="22.34,50.55 26.15,52.75 25.85,52.93 22.04,50.73" fill="#3D86FF"/><polygon points="26.15,58.05 25.85,58.23 25.85,52.93 26.15,52.75" fill="#0253D6"/><polygon points="22.04,56.03 22.04,50.73 25.85,52.93 25.85,58.23" fill="#0364FF"/><polygon points="29.44,-1.00 29.83,-0.77 28.97,-0.27 28.58,-0.50" fill="#C4D8FB"/><polygon points="29.83,21.23 28.97,21.73 28.97,-0.27 29.83,-0.77" fill="#93B2E6"/><polygon points="28.58,21.50 28.58,-0.50 28.97,-0.27 28.97,21.73" fill="#A9C4F1"/></g></svg>