<svg width="32" height="31.825359344482422" viewBox="0 0 31.99999713897705 31.825359344482422" fill="none" xmlns="http://www.w3.org/2000/svg">
  <g fill="#0364FF">
    <path d="M24.6761 22.8216V31.8253L32 27.8287V18.9038L24.6761 22.8216Z"/>
    <path d="M20.0947 19.8281L27.307 15.837 24.2234 14.1426 16.9437 18.1425 20.0947 19.8281Z"/>
    <path d="M28.2456 16.3529L21.0455 20.3368 24.223 22.0367 31.5027 18.1425 28.2456 16.3529Z"/>
    <path d="M19.8656 20.733L16.4594 18.9105V27.8359L23.7703 31.8253V22.8216L19.8866 20.744C19.8795 20.7406 19.8723 20.7368 19.8656 20.733Z"/>
    <path d="M12.0923 5.5107L19.1312 1.6031 16.0097 0 8.7552 3.7253 10.2231 4.5107 12.0923 5.5107Z"/>
    <path d="M20.1005 2.1008L13.0423 6.019 16.0097 7.6065 23.2642 3.7253 20.1005 2.1008Z"/>
    <path d="M16.4628 8.3914V17.3732L23.7867 13.3493V4.4732L17.1736 8.0107 16.4628 8.3914Z"/>
    <path d="M11.8826 6.4258L11.8805 6.4245 9.6386 5.2253 8.2326 4.4732V13.3598L15.557 17.3841V8.3914L11.886 6.4275C11.8847 6.427 11.8835 6.4262 11.8826 6.4258Z"/>
    <path d="M10.96 15.8914L7.777 14.1426 0.4969 18.1425 3.8306 19.9258 10.96 15.8914Z"/>
    <path d="M11.8932 16.4042L4.776 20.4315 7.7766 22.0367 15.0564 18.1425 11.8932 16.4042Z"/>
    <path d="M0 18.9034V27.8287L7.3239 31.8253V22.8216L6.0409 22.1352 0 18.9034Z"/>
    <path d="M8.2297 31.8253L15.5536 27.8287V18.9034L8.2297 22.8216V31.8253Z"/>
  </g>
</svg>
